<svg width="24" height="24" viewBox="0 0 24 24" fill="none" xmlns="http://www.w3.org/2000/svg">
<path d="M21.5 12.2902C21.5 16.4402 19.29 21.5002 12.63 21.5002C7.62461 21.5334 3.53852 17.5055 3.5 12.5002C3.53852 7.49485 7.62461 3.46694 12.63 3.5002C14.7007 3.50788 16.7085 4.21237 18.33 5.5002C18.442 5.59173 18.5109 5.72581 18.52 5.8702C18.5206 6.01629 18.463 6.15661 18.36 6.2602C17.709 6.8554 17.0882 7.48285 16.5 8.1402C16.3289 8.3285 16.0422 8.35456 15.84 8.2002C14.9161 7.51648 13.7888 7.16418 12.64 7.2002C9.68528 7.2002 7.29 9.59548 7.29 12.5502C7.29 15.5049 9.68528 17.9002 12.64 17.9002C15.64 17.9002 16.91 16.6202 17.57 14.3502H13C12.7239 14.3502 12.5 14.1263 12.5 13.8502V11.2002C12.5 10.924 12.7239 10.7002 13 10.7002H21C21.2302 10.6987 21.4244 10.8713 21.45 11.1002C21.4871 11.4957 21.5038 11.8929 21.5 12.2902Z" fill="#201DB2"/>
</svg>
